<svg xmlns="http://www.w3.org/2000/svg" xmlns:xlink="http://www.w3.org/1999/xlink" width="500" zoomAndPan="magnify" viewBox="0 0 375 374.999991" height="500" preserveAspectRatio="xMidYMid meet" version="1.0"><defs><filter x="0%" y="0%" width="100%" height="100%" id="3ba97652fb"><feColorMatrix values="0 0 0 0 1 0 0 0 0 1 0 0 0 0 1 0 0 0 1 0" color-interpolation-filters="sRGB"/></filter><g/><clipPath id="1579093ef7"><path d="M 17 133.0625 L 40.804688 133.0625 L 40.804688 171 L 17 171 Z M 17 133.0625 " clip-rule="nonzero"/></clipPath><clipPath id="cb6202cd85"><path d="M 9.304688 155 L 26 155 L 26 174.3125 L 9.304688 174.3125 Z M 9.304688 155 " clip-rule="nonzero"/></clipPath><clipPath id="681fcacb82"><path d="M 0 0.992188 L 337.984375 0.992188 L 337.984375 323.0625 L 0 323.0625 Z M 0 0.992188 " clip-rule="nonzero"/></clipPath><clipPath id="3dbea6d596"><path d="M 0 0.992188 L 337.984375 0.992188 L 337.984375 323.0625 L 0 323.0625 Z M 0 0.992188 " clip-rule="nonzero"/></clipPath><clipPath id="56a1d143ae"><path d="M 0 5.328125 L 337.980469 5.328125 L 337.980469 315.839844 L 0 315.839844 Z M 0 5.328125 " clip-rule="nonzero"/></clipPath><linearGradient x1="-18.370775" gradientTransform="matrix(1.440681, 0, 0, 1.441194, 26.466426, 120.230177)" y1="28" x2="216.227997" gradientUnits="userSpaceOnUse" y2="28" id="187fd164b1"><stop stop-opacity="1" stop-color="rgb(2.749634%, 95.689392%, 61.959839%)" offset="0"/><stop stop-opacity="1" stop-color="rgb(2.749634%, 95.689392%, 61.959839%)" offset="0.0625"/><stop stop-opacity="1" stop-color="rgb(2.749634%, 95.689392%, 61.959839%)" offset="0.078125"/><stop stop-opacity="1" stop-color="rgb(2.885437%, 95.133972%, 61.885071%)" offset="0.0820312"/><stop stop-opacity="1" stop-color="rgb(3.02124%, 94.580078%, 61.811829%)" offset="0.0859375"/><stop stop-opacity="1" stop-color="rgb(3.179932%, 93.933105%, 61.724854%)" offset="0.0898437"/><stop stop-opacity="1" stop-color="rgb(3.340149%, 93.286133%, 61.639404%)" offset="0.09375"/><stop stop-opacity="1" stop-color="rgb(3.49884%, 92.637634%, 61.552429%)" offset="0.0976562"/><stop stop-opacity="1" stop-color="rgb(3.657532%, 91.990662%, 61.465454%)" offset="0.101562"/><stop stop-opacity="1" stop-color="rgb(3.816223%, 91.343689%, 61.378479%)" offset="0.105469"/><stop stop-opacity="1" stop-color="rgb(3.97644%, 90.696716%, 61.29303%)" offset="0.109375"/><stop stop-opacity="1" stop-color="rgb(4.135132%, 90.049744%, 61.206055%)" offset="0.113281"/><stop stop-opacity="1" stop-color="rgb(4.293823%, 89.402771%, 61.120605%)" offset="0.117187"/><stop stop-opacity="1" stop-color="rgb(4.452515%, 88.755798%, 61.03363%)" offset="0.121094"/><stop stop-opacity="1" stop-color="rgb(4.612732%, 88.108826%, 60.948181%)" offset="0.125"/><stop stop-opacity="1" stop-color="rgb(4.771423%, 87.460327%, 60.861206%)" offset="0.128906"/><stop stop-opacity="1" stop-color="rgb(4.930115%, 86.813354%, 60.775757%)" offset="0.132812"/><stop stop-opacity="1" stop-color="rgb(5.088806%, 86.166382%, 60.688782%)" offset="0.136719"/><stop stop-opacity="1" stop-color="rgb(5.249023%, 85.519409%, 60.603333%)" offset="0.140625"/><stop stop-opacity="1" stop-color="rgb(5.407715%, 84.872437%, 60.516357%)" offset="0.144531"/><stop stop-opacity="1" stop-color="rgb(5.566406%, 84.225464%, 60.430908%)" offset="0.148438"/><stop stop-opacity="1" stop-color="rgb(5.725098%, 83.578491%, 60.343933%)" offset="0.152344"/><stop stop-opacity="1" stop-color="rgb(5.883789%, 82.931519%, 60.258484%)" offset="0.15625"/><stop stop-opacity="1" stop-color="rgb(6.04248%, 82.284546%, 60.171509%)" offset="0.160156"/><stop stop-opacity="1" stop-color="rgb(6.202698%, 81.637573%, 60.08606%)" offset="0.164062"/><stop stop-opacity="1" stop-color="rgb(6.361389%, 80.989075%, 59.999084%)" offset="0.167969"/><stop stop-opacity="1" stop-color="rgb(6.520081%, 80.342102%, 59.913635%)" offset="0.171875"/><stop stop-opacity="1" stop-color="rgb(6.678772%, 79.695129%, 59.82666%)" offset="0.175781"/><stop stop-opacity="1" stop-color="rgb(6.838989%, 79.048157%, 59.739685%)" offset="0.179687"/><stop stop-opacity="1" stop-color="rgb(6.997681%, 78.401184%, 59.65271%)" offset="0.183594"/><stop stop-opacity="1" stop-color="rgb(7.156372%, 77.754211%, 59.567261%)" offset="0.1875"/><stop stop-opacity="1" stop-color="rgb(7.315063%, 77.107239%, 59.480286%)" offset="0.191406"/><stop stop-opacity="1" stop-color="rgb(7.475281%, 76.460266%, 59.394836%)" offset="0.195312"/><stop stop-opacity="1" stop-color="rgb(7.633972%, 75.811768%, 59.307861%)" offset="0.199219"/><stop stop-opacity="1" stop-color="rgb(7.792664%, 75.164795%, 59.222412%)" offset="0.203125"/><stop stop-opacity="1" stop-color="rgb(7.951355%, 74.517822%, 59.135437%)" offset="0.207031"/><stop stop-opacity="1" stop-color="rgb(8.111572%, 73.87085%, 59.049988%)" offset="0.210937"/><stop stop-opacity="1" stop-color="rgb(8.270264%, 73.223877%, 58.963013%)" offset="0.214844"/><stop stop-opacity="1" stop-color="rgb(8.428955%, 72.576904%, 58.877563%)" offset="0.21875"/><stop stop-opacity="1" stop-color="rgb(8.587646%, 71.929932%, 58.790588%)" offset="0.222656"/><stop stop-opacity="1" stop-color="rgb(8.747864%, 71.282959%, 58.705139%)" offset="0.226563"/><stop stop-opacity="1" stop-color="rgb(8.906555%, 70.635986%, 58.618164%)" offset="0.230469"/><stop stop-opacity="1" stop-color="rgb(9.065247%, 69.989014%, 58.532715%)" offset="0.234375"/><stop stop-opacity="1" stop-color="rgb(9.223938%, 69.340515%, 58.44574%)" offset="0.238281"/><stop stop-opacity="1" stop-color="rgb(9.382629%, 68.693542%, 58.360291%)" offset="0.242188"/><stop stop-opacity="1" stop-color="rgb(9.541321%, 68.04657%, 58.273315%)" offset="0.246094"/><stop stop-opacity="1" stop-color="rgb(9.701538%, 67.399597%, 58.187866%)" offset="0.25"/><stop stop-opacity="1" stop-color="rgb(9.860229%, 66.752625%, 58.100891%)" offset="0.253906"/><stop stop-opacity="1" stop-color="rgb(10.018921%, 66.105652%, 58.013916%)" offset="0.257812"/><stop stop-opacity="1" stop-color="rgb(10.177612%, 65.458679%, 57.926941%)" offset="0.261719"/><stop stop-opacity="1" stop-color="rgb(10.33783%, 64.811707%, 57.841492%)" offset="0.265625"/><stop stop-opacity="1" stop-color="rgb(10.496521%, 64.163208%, 57.754517%)" offset="0.269531"/><stop stop-opacity="1" stop-color="rgb(10.655212%, 63.516235%, 57.669067%)" offset="0.273438"/><stop stop-opacity="1" stop-color="rgb(10.813904%, 62.869263%, 57.582092%)" offset="0.277344"/><stop stop-opacity="1" stop-color="rgb(10.974121%, 62.22229%, 57.496643%)" offset="0.28125"/><stop stop-opacity="1" stop-color="rgb(11.132812%, 61.575317%, 57.409668%)" offset="0.285156"/><stop stop-opacity="1" stop-color="rgb(11.291504%, 60.928345%, 57.324219%)" offset="0.289062"/><stop stop-opacity="1" stop-color="rgb(11.450195%, 60.281372%, 57.237244%)" offset="0.292969"/><stop stop-opacity="1" stop-color="rgb(11.610413%, 59.634399%, 57.151794%)" offset="0.296875"/><stop stop-opacity="1" stop-color="rgb(11.769104%, 58.987427%, 57.064819%)" offset="0.300781"/><stop stop-opacity="1" stop-color="rgb(11.927795%, 58.340454%, 56.97937%)" offset="0.304687"/><stop stop-opacity="1" stop-color="rgb(12.086487%, 57.691956%, 56.892395%)" offset="0.308594"/><stop stop-opacity="1" stop-color="rgb(12.245178%, 57.044983%, 56.806946%)" offset="0.3125"/><stop stop-opacity="1" stop-color="rgb(12.40387%, 56.39801%, 56.719971%)" offset="0.316406"/><stop stop-opacity="1" stop-color="rgb(12.564087%, 55.751038%, 56.634521%)" offset="0.320312"/><stop stop-opacity="1" stop-color="rgb(12.722778%, 55.104065%, 56.547546%)" offset="0.324219"/><stop stop-opacity="1" stop-color="rgb(12.88147%, 54.457092%, 56.460571%)" offset="0.328125"/><stop stop-opacity="1" stop-color="rgb(13.040161%, 53.81012%, 56.373596%)" offset="0.332031"/><stop stop-opacity="1" stop-color="rgb(13.200378%, 53.163147%, 56.288147%)" offset="0.335938"/><stop stop-opacity="1" stop-color="rgb(13.35907%, 52.514648%, 56.201172%)" offset="0.339844"/><stop stop-opacity="1" stop-color="rgb(13.517761%, 51.867676%, 56.115723%)" offset="0.34375"/><stop stop-opacity="1" stop-color="rgb(13.676453%, 51.220703%, 56.028748%)" offset="0.347656"/><stop stop-opacity="1" stop-color="rgb(13.83667%, 50.57373%, 55.943298%)" offset="0.351562"/><stop stop-opacity="1" stop-color="rgb(13.995361%, 49.926758%, 55.856323%)" offset="0.355469"/><stop stop-opacity="1" stop-color="rgb(14.154053%, 49.279785%, 55.770874%)" offset="0.359375"/><stop stop-opacity="1" stop-color="rgb(14.312744%, 48.632812%, 55.683899%)" offset="0.363281"/><stop stop-opacity="1" stop-color="rgb(14.472961%, 47.98584%, 55.59845%)" offset="0.367188"/><stop stop-opacity="1" stop-color="rgb(14.631653%, 47.338867%, 55.511475%)" offset="0.371094"/><stop stop-opacity="1" stop-color="rgb(14.790344%, 46.691895%, 55.426025%)" offset="0.375"/><stop stop-opacity="1" stop-color="rgb(14.949036%, 46.043396%, 55.33905%)" offset="0.378906"/><stop stop-opacity="1" stop-color="rgb(15.109253%, 45.396423%, 55.253601%)" offset="0.382812"/><stop stop-opacity="1" stop-color="rgb(15.267944%, 44.749451%, 55.166626%)" offset="0.386719"/><stop stop-opacity="1" stop-color="rgb(15.426636%, 44.102478%, 55.081177%)" offset="0.390625"/><stop stop-opacity="1" stop-color="rgb(15.585327%, 43.455505%, 54.994202%)" offset="0.394531"/><stop stop-opacity="1" stop-color="rgb(15.744019%, 42.808533%, 54.908752%)" offset="0.398437"/><stop stop-opacity="1" stop-color="rgb(15.90271%, 42.16156%, 54.821777%)" offset="0.402344"/><stop stop-opacity="1" stop-color="rgb(16.062927%, 41.514587%, 54.734802%)" offset="0.40625"/><stop stop-opacity="1" stop-color="rgb(16.221619%, 40.867615%, 54.647827%)" offset="0.410156"/><stop stop-opacity="1" stop-color="rgb(16.38031%, 40.220642%, 54.562378%)" offset="0.414062"/><stop stop-opacity="1" stop-color="rgb(16.539001%, 39.572144%, 54.475403%)" offset="0.417969"/><stop stop-opacity="1" stop-color="rgb(16.699219%, 38.925171%, 54.389954%)" offset="0.421875"/><stop stop-opacity="1" stop-color="rgb(16.85791%, 38.278198%, 54.302979%)" offset="0.425781"/><stop stop-opacity="1" stop-color="rgb(17.016602%, 37.631226%, 54.217529%)" offset="0.429687"/><stop stop-opacity="1" stop-color="rgb(17.175293%, 36.984253%, 54.130554%)" offset="0.433594"/><stop stop-opacity="1" stop-color="rgb(17.33551%, 36.33728%, 54.045105%)" offset="0.4375"/><stop stop-opacity="1" stop-color="rgb(17.494202%, 35.690308%, 53.95813%)" offset="0.441406"/><stop stop-opacity="1" stop-color="rgb(17.652893%, 35.043335%, 53.872681%)" offset="0.445312"/><stop stop-opacity="1" stop-color="rgb(17.811584%, 34.394836%, 53.785706%)" offset="0.449219"/><stop stop-opacity="1" stop-color="rgb(17.971802%, 33.747864%, 53.700256%)" offset="0.453125"/><stop stop-opacity="1" stop-color="rgb(18.130493%, 33.100891%, 53.613281%)" offset="0.457031"/><stop stop-opacity="1" stop-color="rgb(18.289185%, 32.453918%, 53.527832%)" offset="0.460937"/><stop stop-opacity="1" stop-color="rgb(18.447876%, 31.806946%, 53.440857%)" offset="0.464844"/><stop stop-opacity="1" stop-color="rgb(18.606567%, 31.159973%, 53.355408%)" offset="0.46875"/><stop stop-opacity="1" stop-color="rgb(18.765259%, 30.513%, 53.268433%)" offset="0.472656"/><stop stop-opacity="1" stop-color="rgb(18.925476%, 29.866028%, 53.182983%)" offset="0.476562"/><stop stop-opacity="1" stop-color="rgb(19.084167%, 29.219055%, 53.096008%)" offset="0.480469"/><stop stop-opacity="1" stop-color="rgb(19.242859%, 28.572083%, 53.009033%)" offset="0.484375"/><stop stop-opacity="1" stop-color="rgb(19.40155%, 27.923584%, 52.922058%)" offset="0.488281"/><stop stop-opacity="1" stop-color="rgb(19.561768%, 27.276611%, 52.836609%)" offset="0.492187"/><stop stop-opacity="1" stop-color="rgb(19.720459%, 26.629639%, 52.749634%)" offset="0.496094"/><stop stop-opacity="1" stop-color="rgb(19.87915%, 25.982666%, 52.664185%)" offset="0.5"/><stop stop-opacity="1" stop-color="rgb(20.037842%, 25.335693%, 52.577209%)" offset="0.503906"/><stop stop-opacity="1" stop-color="rgb(20.198059%, 24.688721%, 52.49176%)" offset="0.507812"/><stop stop-opacity="1" stop-color="rgb(20.35675%, 24.041748%, 52.404785%)" offset="0.511719"/><stop stop-opacity="1" stop-color="rgb(20.515442%, 23.394775%, 52.319336%)" offset="0.515625"/><stop stop-opacity="1" stop-color="rgb(20.674133%, 22.746277%, 52.232361%)" offset="0.519531"/><stop stop-opacity="1" stop-color="rgb(20.834351%, 22.099304%, 52.146912%)" offset="0.523438"/><stop stop-opacity="1" stop-color="rgb(20.993042%, 21.452332%, 52.059937%)" offset="0.527344"/><stop stop-opacity="1" stop-color="rgb(21.151733%, 20.805359%, 51.974487%)" offset="0.53125"/><stop stop-opacity="1" stop-color="rgb(21.310425%, 20.158386%, 51.887512%)" offset="0.535156"/><stop stop-opacity="1" stop-color="rgb(21.470642%, 19.511414%, 51.802063%)" offset="0.539062"/><stop stop-opacity="1" stop-color="rgb(21.629333%, 18.864441%, 51.715088%)" offset="0.542969"/><stop stop-opacity="1" stop-color="rgb(21.788025%, 18.217468%, 51.629639%)" offset="0.546875"/><stop stop-opacity="1" stop-color="rgb(21.946716%, 17.570496%, 51.542664%)" offset="0.550781"/><stop stop-opacity="1" stop-color="rgb(22.105408%, 16.923523%, 51.457214%)" offset="0.554688"/><stop stop-opacity="1" stop-color="rgb(22.264099%, 16.275024%, 51.370239%)" offset="0.558594"/><stop stop-opacity="1" stop-color="rgb(22.424316%, 15.628052%, 51.283264%)" offset="0.5625"/><stop stop-opacity="1" stop-color="rgb(22.583008%, 14.981079%, 51.196289%)" offset="0.566406"/><stop stop-opacity="1" stop-color="rgb(22.741699%, 14.334106%, 51.11084%)" offset="0.570312"/><stop stop-opacity="1" stop-color="rgb(22.900391%, 13.687134%, 51.023865%)" offset="0.574219"/><stop stop-opacity="1" stop-color="rgb(23.060608%, 13.040161%, 50.938416%)" offset="0.578125"/><stop stop-opacity="1" stop-color="rgb(23.219299%, 12.393188%, 50.85144%)" offset="0.582031"/><stop stop-opacity="1" stop-color="rgb(23.377991%, 11.746216%, 50.765991%)" offset="0.585938"/><stop stop-opacity="1" stop-color="rgb(23.536682%, 11.097717%, 50.679016%)" offset="0.589844"/><stop stop-opacity="1" stop-color="rgb(23.696899%, 10.450745%, 50.593567%)" offset="0.59375"/><stop stop-opacity="1" stop-color="rgb(23.855591%, 9.803772%, 50.506592%)" offset="0.597656"/><stop stop-opacity="1" stop-color="rgb(24.014282%, 9.156799%, 50.421143%)" offset="0.601562"/><stop stop-opacity="1" stop-color="rgb(24.172974%, 8.509827%, 50.334167%)" offset="0.605469"/><stop stop-opacity="1" stop-color="rgb(24.333191%, 7.862854%, 50.248718%)" offset="0.609375"/><stop stop-opacity="1" stop-color="rgb(24.491882%, 7.215881%, 50.161743%)" offset="0.613281"/><stop stop-opacity="1" stop-color="rgb(24.650574%, 6.568909%, 50.076294%)" offset="0.617188"/><stop stop-opacity="1" stop-color="rgb(24.809265%, 5.921936%, 49.989319%)" offset="0.621094"/><stop stop-opacity="1" stop-color="rgb(24.969482%, 5.274963%, 49.90387%)" offset="0.625"/><stop stop-opacity="1" stop-color="rgb(25.128174%, 4.626465%, 49.816895%)" offset="0.628906"/><stop stop-opacity="1" stop-color="rgb(25.286865%, 3.979492%, 49.729919%)" offset="0.632812"/><stop stop-opacity="1" stop-color="rgb(25.445557%, 3.33252%, 49.642944%)" offset="0.636719"/><stop stop-opacity="1" stop-color="rgb(25.604248%, 2.685547%, 49.557495%)" offset="0.640625"/><stop stop-opacity="1" stop-color="rgb(25.741577%, 2.127075%, 49.482727%)" offset="0.644531"/><stop stop-opacity="1" stop-color="rgb(25.878906%, 1.568604%, 49.409485%)" offset="0.648438"/><stop stop-opacity="1" stop-color="rgb(25.878906%, 1.568604%, 49.409485%)" offset="0.65625"/><stop stop-opacity="1" stop-color="rgb(25.878906%, 1.568604%, 49.409485%)" offset="0.6875"/><stop stop-opacity="1" stop-color="rgb(25.878906%, 1.568604%, 49.409485%)" offset="0.75"/><stop stop-opacity="1" stop-color="rgb(25.878906%, 1.568604%, 49.409485%)" offset="1"/></linearGradient><clipPath id="822df0dbb4"><rect x="0" width="338" y="0" height="324"/></clipPath><clipPath id="7e5a33da4f"><path d="M 0 0.992188 L 337.984375 0.992188 L 337.984375 323.0625 L 0 323.0625 Z M 0 0.992188 " clip-rule="nonzero"/></clipPath><clipPath id="20dc253727"><rect x="0" width="338" y="0" height="324"/></clipPath><clipPath id="39b8a6bb92"><rect x="0" width="338" y="0" height="324"/></clipPath><mask id="37b71996cd"><g filter="url(#3ba97652fb)"><g transform="matrix(1, 0, 0, 1, 0, 0)"><g clip-path="url(#39b8a6bb92)"><g clip-path="url(#7e5a33da4f)"><g transform="matrix(1, 0, 0, 1, 0, 0)"><g clip-path="url(#20dc253727)"><g fill="#000000" fill-opacity="1"><g transform="translate(26.340768, 182.969484)"><g><path d="M 3.78125 0 L 3.78125 -43.4375 L 32.546875 -43.4375 L 32.546875 -35.875 L 12.953125 -35.875 L 12.953125 -25.515625 L 30.625 -25.515625 L 30.625 -17.953125 L 12.953125 -17.953125 L 12.953125 0 Z M 3.78125 0 "/></g></g></g><g fill="#000000" fill-opacity="1"><g transform="translate(60.874118, 182.969484)"><g><path d="M 12.890625 0.609375 C 9.785156 0.609375 7.207031 -0.203125 5.15625 -1.828125 C 3.101562 -3.453125 2.078125 -5.875 2.078125 -9.09375 C 2.078125 -11.53125 2.648438 -13.441406 3.796875 -14.828125 C 4.941406 -16.210938 6.441406 -17.226562 8.296875 -17.875 C 10.160156 -18.519531 12.164062 -18.941406 14.3125 -19.140625 C 17.144531 -19.421875 19.164062 -19.710938 20.375 -20.015625 C 21.59375 -20.328125 22.203125 -21.007812 22.203125 -22.0625 L 22.203125 -22.1875 C 22.203125 -23.53125 21.78125 -24.566406 20.9375 -25.296875 C 20.101562 -26.035156 18.914062 -26.40625 17.375 -26.40625 C 15.75 -26.40625 14.453125 -26.050781 13.484375 -25.34375 C 12.523438 -24.632812 11.890625 -23.738281 11.578125 -22.65625 L 3.21875 -23.328125 C 3.84375 -26.296875 5.390625 -28.648438 7.859375 -30.390625 C 10.328125 -32.128906 13.515625 -33 17.421875 -33 C 19.835938 -33 22.097656 -32.617188 24.203125 -31.859375 C 26.304688 -31.097656 28.003906 -29.90625 29.296875 -28.28125 C 30.597656 -26.664062 31.25 -24.5625 31.25 -21.96875 L 31.25 0 L 22.671875 0 L 22.671875 -4.515625 L 22.421875 -4.515625 C 21.628906 -3.003906 20.441406 -1.769531 18.859375 -0.8125 C 17.285156 0.132812 15.296875 0.609375 12.890625 0.609375 Z M 15.484375 -5.625 C 17.460938 -5.625 19.085938 -6.195312 20.359375 -7.34375 C 21.628906 -8.5 22.265625 -9.929688 22.265625 -11.640625 L 22.265625 -15.109375 C 21.921875 -14.867188 21.375 -14.65625 20.625 -14.46875 C 19.882812 -14.28125 19.09375 -14.117188 18.25 -13.984375 C 17.40625 -13.847656 16.65625 -13.734375 16 -13.640625 C 14.414062 -13.410156 13.140625 -12.960938 12.171875 -12.296875 C 11.203125 -11.640625 10.71875 -10.671875 10.71875 -9.390625 C 10.71875 -8.148438 11.164062 -7.210938 12.0625 -6.578125 C 12.957031 -5.941406 14.097656 -5.625 15.484375 -5.625 Z M 15.484375 -5.625 "/></g></g></g><g fill="#000000" fill-opacity="1"><g transform="translate(95.534757, 182.969484)"><g><path d="M 18.328125 0.640625 C 14.992188 0.640625 12.125 -0.0664062 9.71875 -1.484375 C 7.320312 -2.910156 5.484375 -4.890625 4.203125 -7.421875 C 2.929688 -9.953125 2.296875 -12.863281 2.296875 -16.15625 C 2.296875 -19.5 2.941406 -22.429688 4.234375 -24.953125 C 5.523438 -27.484375 7.363281 -29.457031 9.75 -30.875 C 12.144531 -32.289062 14.988281 -33 18.28125 -33 C 21.125 -33 23.613281 -32.484375 25.75 -31.453125 C 27.894531 -30.421875 29.585938 -28.972656 30.828125 -27.109375 C 32.066406 -25.242188 32.75 -23.050781 32.875 -20.53125 L 24.359375 -20.53125 C 24.109375 -22.15625 23.472656 -23.46875 22.453125 -24.46875 C 21.429688 -25.46875 20.09375 -25.96875 18.4375 -25.96875 C 16.34375 -25.96875 14.65625 -25.125 13.375 -23.4375 C 12.101562 -21.757812 11.46875 -19.378906 11.46875 -16.296875 C 11.46875 -13.179688 12.097656 -10.769531 13.359375 -9.0625 C 14.628906 -7.363281 16.320312 -6.515625 18.4375 -6.515625 C 19.988281 -6.515625 21.296875 -6.984375 22.359375 -7.921875 C 23.421875 -8.859375 24.085938 -10.195312 24.359375 -11.9375 L 32.875 -11.9375 C 32.738281 -9.445312 32.066406 -7.253906 30.859375 -5.359375 C 29.648438 -3.472656 27.984375 -2 25.859375 -0.9375 C 23.734375 0.113281 21.222656 0.640625 18.328125 0.640625 Z M 18.328125 0.640625 "/></g></g></g><g fill="#000000" fill-opacity="1"><g transform="translate(130.619641, 182.969484)"><g><path d="M 3.609375 0 L 3.609375 -32.578125 L 12.640625 -32.578125 L 12.640625 0 Z M 8.15625 -36.78125 C 6.820312 -36.78125 5.671875 -37.226562 4.703125 -38.125 C 3.742188 -39.03125 3.265625 -40.109375 3.265625 -41.359375 C 3.265625 -42.617188 3.742188 -43.691406 4.703125 -44.578125 C 5.671875 -45.472656 6.820312 -45.921875 8.15625 -45.921875 C 9.5 -45.921875 10.648438 -45.472656 11.609375 -44.578125 C 12.566406 -43.691406 13.046875 -42.617188 13.046875 -41.359375 C 13.046875 -40.109375 12.566406 -39.03125 11.609375 -38.125 C 10.648438 -37.226562 9.5 -36.78125 8.15625 -36.78125 Z M 8.15625 -36.78125 "/></g></g></g><g fill="#000000" fill-opacity="1"><g transform="translate(146.868139, 182.969484)"><g><path d="M 12.640625 -43.4375 L 12.640625 0 L 3.609375 0 L 3.609375 -43.4375 Z M 12.640625 -43.4375 "/></g></g></g><g fill="#000000" fill-opacity="1"><g transform="translate(163.116637, 182.969484)"><g><path d="M 12.640625 -43.4375 L 12.640625 0 L 3.609375 0 L 3.609375 -43.4375 Z M 12.640625 -43.4375 "/></g></g></g><g fill="#000000" fill-opacity="1"><g transform="translate(179.365136, 182.969484)"><g><path d="M 3.609375 0 L 3.609375 -32.578125 L 12.640625 -32.578125 L 12.640625 0 Z M 8.15625 -36.78125 C 6.820312 -36.78125 5.671875 -37.226562 4.703125 -38.125 C 3.742188 -39.03125 3.265625 -40.109375 3.265625 -41.359375 C 3.265625 -42.617188 3.742188 -43.691406 4.703125 -44.578125 C 5.671875 -45.472656 6.820312 -45.921875 8.15625 -45.921875 C 9.5 -45.921875 10.648438 -45.472656 11.609375 -44.578125 C 12.566406 -43.691406 13.046875 -42.617188 13.046875 -41.359375 C 13.046875 -40.109375 12.566406 -39.03125 11.609375 -38.125 C 10.648438 -37.226562 9.5 -36.78125 8.15625 -36.78125 Z M 8.15625 -36.78125 "/></g></g></g><g fill="#000000" fill-opacity="1"><g transform="translate(195.613634, 182.969484)"><g><path d="M 20.9375 -32.578125 L 20.9375 -25.796875 L 14.8125 -25.796875 L 14.8125 -10.015625 C 14.8125 -8.765625 15.09375 -7.921875 15.65625 -7.484375 C 16.21875 -7.046875 16.953125 -6.828125 17.859375 -6.828125 C 18.285156 -6.828125 18.707031 -6.863281 19.125 -6.9375 C 19.550781 -7.019531 19.878906 -7.082031 20.109375 -7.125 L 21.53125 -0.40625 C 21.082031 -0.257812 20.445312 -0.09375 19.625 0.09375 C 18.800781 0.28125 17.800781 0.398438 16.625 0.453125 C 13.34375 0.585938 10.707031 -0.125 8.71875 -1.6875 C 6.738281 -3.25 5.753906 -5.628906 5.765625 -8.828125 L 5.765625 -25.796875 L 1.3125 -25.796875 L 1.3125 -32.578125 L 5.765625 -32.578125 L 5.765625 -40.390625 L 14.8125 -40.390625 L 14.8125 -32.578125 Z M 20.9375 -32.578125 "/></g></g></g></g></g></g></g></g></g></mask><clipPath id="04bc82e321"><path d="M 0 5.328125 L 337.980469 5.328125 L 337.980469 315.839844 L 0 315.839844 Z M 0 5.328125 " clip-rule="nonzero"/></clipPath><clipPath id="7ace6ef38a"><rect x="0" width="338" y="0" height="324"/></clipPath><clipPath id="9af11e7d6f"><rect x="0" width="338" y="0" height="324"/></clipPath><clipPath id="c0c73afe3a"><rect x="0" width="340" y="0" height="324"/></clipPath><clipPath id="cb2e15d34a"><rect x="0" width="156" y="0" height="53"/></clipPath></defs><g clip-path="url(#1579093ef7)"><path fill="#07f49e" d="M 25.949219 170.058594 L 25.414062 169.050781 C 24.457031 167.425781 23.089844 166.296875 21.488281 165.34375 C 20.4375 164.71875 19.222656 164.273438 18.214844 163.648438 C 17.957031 163.488281 17.785156 163.375 17.710938 163.054688 C 17.8125 158.078125 17.496094 152.980469 17.683594 148.015625 C 17.824219 144.316406 19.113281 141.4375 22.046875 139.152344 C 22.441406 137.417969 23.097656 135.683594 24.128906 134.226562 C 24.386719 133.859375 25.078125 132.800781 25.578125 133.121094 C 26.285156 133.570312 26.800781 135.9375 27.046875 136.75 C 27.125 136.773438 27.132812 136.730469 27.179688 136.699219 C 27.925781 136.183594 28.6875 135.023438 29.453125 134.53125 C 29.746094 134.347656 30.09375 134.199219 30.246094 134.621094 C 30.535156 135.417969 30.195312 136.628906 30.292969 137.453125 C 30.375 138.121094 30.746094 138.039062 31.210938 138.257812 C 32.394531 138.816406 32.917969 139.625 33.929688 140.296875 C 35.140625 141.097656 36.597656 141.457031 38.015625 141.703125 C 38.808594 141.84375 39.945312 141.863281 40.664062 142.089844 C 41.492188 142.351562 40.5625 143.402344 40.246094 143.757812 C 39.441406 144.679688 38.519531 145.25 37.269531 145.328125 C 34.742188 145.488281 31.992188 145.09375 29.484375 145.4375 C 27.660156 145.6875 26.175781 146.835938 26.007812 148.757812 C 25.984375 149.015625 25.902344 149.488281 26.238281 149.503906 L 37.738281 149.503906 C 38.15625 149.507812 38.308594 149.78125 38.339844 150.160156 C 38.542969 152.425781 37.664062 155.765625 34.964844 155.992188 L 26.335938 155.992188 C 26.210938 155.953125 25.945312 156.109375 25.945312 156.226562 L 25.945312 170.054688 Z M 29.410156 140.476562 C 29.054688 140.855469 29.824219 141.332031 30.117188 141.445312 C 30.671875 141.660156 32.671875 141.878906 31.75 140.804688 C 31.410156 140.410156 30.714844 140.230469 30.207031 140.253906 C 30.046875 140.261719 29.511719 140.375 29.410156 140.476562 Z M 29.410156 140.476562 " fill-opacity="1" fill-rule="nonzero"/></g><g clip-path="url(#cb6202cd85)"><path fill="#07f49e" d="M 14.957031 155.953125 C 15.671875 155.890625 15.113281 156.980469 15.023438 157.332031 C 14.691406 158.644531 14.570312 159.933594 14.886719 161.273438 C 15.644531 164.460938 18.804688 165.089844 21.214844 166.605469 C 23.546875 168.070312 25.167969 170.285156 25.320312 173.113281 C 25.359375 173.777344 25.457031 174.375 24.660156 174.496094 C 23.414062 174.683594 21.214844 174.613281 19.910156 174.554688 C 16.730469 174.410156 13.625 173.445312 11.515625 170.972656 C 8.132812 166.992188 8.714844 160.511719 12.746094 157.195312 C 13.21875 156.808594 14.363281 156 14.957031 155.953125 Z M 14.957031 155.953125 " fill-opacity="1" fill-rule="nonzero"/></g><g transform="matrix(1, 0, 0, 1, 0, 27)"><g clip-path="url(#c0c73afe3a)"><g clip-path="url(#681fcacb82)"><g transform="matrix(1, 0, 0, 1, 0, 0)"><g clip-path="url(#9af11e7d6f)"><g clip-path="url(#3dbea6d596)"><g mask="url(#37b71996cd)"><g transform="matrix(1, 0, 0, 1, 0, 0)"><g clip-path="url(#7ace6ef38a)"><g clip-path="url(#04bc82e321)"><path fill="url(#187fd164b1)" d="M 0 5.328125 L 0 315.839844 L 337.980469 315.839844 L 337.980469 5.328125 Z M 0 5.328125 " fill-rule="nonzero"/></g></g></g></g></g></g></g></g></g></g><g transform="matrix(1, 0, 0, 1, 214, 162)"><g clip-path="url(#cb2e15d34a)"><g fill="#42047e" fill-opacity="1"><g transform="translate(0.371948, 40.748239)"><g><path d="M 16.359375 0 L 15.25 -2.859375 L 15.09375 -2.859375 C 14.125 -1.640625 13.128906 -0.796875 12.109375 -0.328125 C 11.085938 0.140625 9.757812 0.375 8.125 0.375 C 6.101562 0.375 4.507812 -0.195312 3.34375 -1.34375 C 2.1875 -2.5 1.609375 -4.144531 1.609375 -6.28125 C 1.609375 -8.507812 2.390625 -10.148438 3.953125 -11.203125 C 5.515625 -12.265625 7.867188 -12.851562 11.015625 -12.96875 L 14.65625 -13.078125 L 14.65625 -14 C 14.65625 -16.132812 13.566406 -17.203125 11.390625 -17.203125 C 9.710938 -17.203125 7.738281 -16.691406 5.46875 -15.671875 L 3.578125 -19.546875 C 5.992188 -20.816406 8.675781 -21.453125 11.625 -21.453125 C 14.4375 -21.453125 16.59375 -20.835938 18.09375 -19.609375 C 19.601562 -18.378906 20.359375 -16.507812 20.359375 -14 L 20.359375 0 Z M 14.65625 -9.734375 L 12.4375 -9.65625 C 10.769531 -9.613281 9.53125 -9.316406 8.71875 -8.765625 C 7.90625 -8.210938 7.5 -7.367188 7.5 -6.234375 C 7.5 -4.617188 8.425781 -3.8125 10.28125 -3.8125 C 11.613281 -3.8125 12.675781 -4.191406 13.46875 -4.953125 C 14.257812 -5.722656 14.65625 -6.742188 14.65625 -8.015625 Z M 14.65625 -9.734375 "/></g></g></g><g fill="#42047e" fill-opacity="1"><g transform="translate(23.625069, 40.748239)"><g><path d="M 11.546875 0.375 C 5.003906 0.375 1.734375 -3.210938 1.734375 -10.390625 C 1.734375 -13.960938 2.617188 -16.691406 4.390625 -18.578125 C 6.171875 -20.460938 8.722656 -21.40625 12.046875 -21.40625 C 14.484375 -21.40625 16.664062 -20.929688 18.59375 -19.984375 L 16.90625 -15.546875 C 16 -15.910156 15.15625 -16.207031 14.375 -16.4375 C 13.601562 -16.664062 12.828125 -16.78125 12.046875 -16.78125 C 9.066406 -16.78125 7.578125 -14.664062 7.578125 -10.4375 C 7.578125 -6.320312 9.066406 -4.265625 12.046875 -4.265625 C 13.148438 -4.265625 14.171875 -4.410156 15.109375 -4.703125 C 16.054688 -5.003906 17 -5.46875 17.9375 -6.09375 L 17.9375 -1.1875 C 17.007812 -0.59375 16.070312 -0.1875 15.125 0.03125 C 14.175781 0.257812 12.984375 0.375 11.546875 0.375 Z M 11.546875 0.375 "/></g></g></g><g fill="#42047e" fill-opacity="1"><g transform="translate(43.419359, 40.748239)"><g><path d="M 11.546875 0.375 C 5.003906 0.375 1.734375 -3.210938 1.734375 -10.390625 C 1.734375 -13.960938 2.617188 -16.691406 4.390625 -18.578125 C 6.171875 -20.460938 8.722656 -21.40625 12.046875 -21.40625 C 14.484375 -21.40625 16.664062 -20.929688 18.59375 -19.984375 L 16.90625 -15.546875 C 16 -15.910156 15.15625 -16.207031 14.375 -16.4375 C 13.601562 -16.664062 12.828125 -16.78125 12.046875 -16.78125 C 9.066406 -16.78125 7.578125 -14.664062 7.578125 -10.4375 C 7.578125 -6.320312 9.066406 -4.265625 12.046875 -4.265625 C 13.148438 -4.265625 14.171875 -4.410156 15.109375 -4.703125 C 16.054688 -5.003906 17 -5.46875 17.9375 -6.09375 L 17.9375 -1.1875 C 17.007812 -0.59375 16.070312 -0.1875 15.125 0.03125 C 14.175781 0.257812 12.984375 0.375 11.546875 0.375 Z M 11.546875 0.375 "/></g></g></g><g fill="#42047e" fill-opacity="1"><g transform="translate(63.213648, 40.748239)"><g><path d="M 7.578125 -10.546875 C 7.578125 -8.460938 7.914062 -6.890625 8.59375 -5.828125 C 9.28125 -4.765625 10.394531 -4.234375 11.9375 -4.234375 C 13.46875 -4.234375 14.566406 -4.757812 15.234375 -5.8125 C 15.910156 -6.875 16.25 -8.453125 16.25 -10.546875 C 16.25 -12.628906 15.910156 -14.1875 15.234375 -15.21875 C 14.554688 -16.257812 13.445312 -16.78125 11.90625 -16.78125 C 10.375 -16.78125 9.269531 -16.265625 8.59375 -15.234375 C 7.914062 -14.203125 7.578125 -12.640625 7.578125 -10.546875 Z M 22.109375 -10.546875 C 22.109375 -7.128906 21.203125 -4.453125 19.390625 -2.515625 C 17.585938 -0.585938 15.078125 0.375 11.859375 0.375 C 9.835938 0.375 8.054688 -0.0664062 6.515625 -0.953125 C 4.984375 -1.835938 3.800781 -3.101562 2.96875 -4.75 C 2.144531 -6.40625 1.734375 -8.335938 1.734375 -10.546875 C 1.734375 -13.984375 2.628906 -16.648438 4.421875 -18.546875 C 6.210938 -20.453125 8.726562 -21.40625 11.96875 -21.40625 C 13.988281 -21.40625 15.769531 -20.96875 17.3125 -20.09375 C 18.851562 -19.21875 20.035156 -17.957031 20.859375 -16.3125 C 21.691406 -14.675781 22.109375 -12.753906 22.109375 -10.546875 Z M 22.109375 -10.546875 "/></g></g></g><g fill="#42047e" fill-opacity="1"><g transform="translate(87.049507, 40.748239)"><g><path d="M 17.890625 0 L 17.125 -2.6875 L 16.828125 -2.6875 C 16.210938 -1.707031 15.335938 -0.953125 14.203125 -0.421875 C 13.078125 0.109375 11.796875 0.375 10.359375 0.375 C 7.890625 0.375 6.023438 -0.285156 4.765625 -1.609375 C 3.515625 -2.929688 2.890625 -4.832031 2.890625 -7.3125 L 2.890625 -21.015625 L 8.625 -21.015625 L 8.625 -8.734375 C 8.625 -7.222656 8.894531 -6.085938 9.4375 -5.328125 C 9.976562 -4.566406 10.835938 -4.1875 12.015625 -4.1875 C 13.617188 -4.1875 14.773438 -4.722656 15.484375 -5.796875 C 16.203125 -6.867188 16.5625 -8.644531 16.5625 -11.125 L 16.5625 -21.015625 L 22.296875 -21.015625 L 22.296875 0 Z M 17.890625 0 "/></g></g></g><g fill="#42047e" fill-opacity="1"><g transform="translate(112.35161, 40.748239)"><g><path d="M 22.40625 0 L 16.671875 0 L 16.671875 -12.28125 C 16.671875 -13.789062 16.398438 -14.925781 15.859375 -15.6875 C 15.328125 -16.445312 14.472656 -16.828125 13.296875 -16.828125 C 11.691406 -16.828125 10.53125 -16.289062 9.8125 -15.21875 C 9.09375 -14.144531 8.734375 -12.367188 8.734375 -9.890625 L 8.734375 0 L 3.015625 0 L 3.015625 -21.015625 L 7.390625 -21.015625 L 8.15625 -18.328125 L 8.484375 -18.328125 C 9.117188 -19.347656 9.992188 -20.113281 11.109375 -20.625 C 12.234375 -21.144531 13.507812 -21.40625 14.9375 -21.40625 C 17.382812 -21.40625 19.238281 -20.742188 20.5 -19.421875 C 21.769531 -18.109375 22.40625 -16.203125 22.40625 -13.703125 Z M 22.40625 0 "/></g></g></g><g fill="#42047e" fill-opacity="1"><g transform="translate(137.653713, 40.748239)"><g><path d="M 11.859375 -4.1875 C 12.859375 -4.1875 14.0625 -4.40625 15.46875 -4.84375 L 15.46875 -0.578125 C 14.039062 0.0546875 12.285156 0.375 10.203125 0.375 C 7.910156 0.375 6.238281 -0.203125 5.1875 -1.359375 C 4.144531 -2.523438 3.625 -4.265625 3.625 -6.578125 L 3.625 -16.71875 L 0.890625 -16.71875 L 0.890625 -19.140625 L 4.046875 -21.0625 L 5.703125 -25.484375 L 9.359375 -25.484375 L 9.359375 -21.015625 L 15.25 -21.015625 L 15.25 -16.71875 L 9.359375 -16.71875 L 9.359375 -6.578125 C 9.359375 -5.765625 9.585938 -5.160156 10.046875 -4.765625 C 10.503906 -4.378906 11.109375 -4.1875 11.859375 -4.1875 Z M 11.859375 -4.1875 "/></g></g></g></g></g></svg>