<svg xmlns="http://www.w3.org/2000/svg" xmlns:xlink="http://www.w3.org/1999/xlink" width="500" zoomAndPan="magnify" viewBox="0 0 375 374.999991" height="500" preserveAspectRatio="xMidYMid meet" version="1.0"><defs><filter x="0%" y="0%" width="100%" height="100%" id="26425d4dfe"><feColorMatrix values="0 0 0 0 1 0 0 0 0 1 0 0 0 0 1 0 0 0 1 0" color-interpolation-filters="sRGB"/></filter><g/><clipPath id="76ff31ac53"><path d="M 8 49.0625 L 32.078125 49.0625 L 32.078125 87 L 8 87 Z M 8 49.0625 " clip-rule="nonzero"/></clipPath><clipPath id="9a3ce01ea8"><path d="M 0.304688 72 L 17 72 L 17 90.945312 L 0.304688 90.945312 Z M 0.304688 72 " clip-rule="nonzero"/></clipPath><clipPath id="d2720d0bc2"><path d="M 128.828125 1.765625 L 366 1.765625 L 366 208.292969 L 128.828125 208.292969 Z M 128.828125 1.765625 " clip-rule="nonzero"/></clipPath><clipPath id="d3ec44b4dc"><path d="M 0.828125 0.765625 L 238 0.765625 L 238 207.292969 L 0.828125 207.292969 Z M 0.828125 0.765625 " clip-rule="nonzero"/></clipPath><clipPath id="4422ea040e"><path d="M 0.832031 0.765625 L 238 0.765625 L 238 207.292969 L 0.832031 207.292969 Z M 0.832031 0.765625 " clip-rule="nonzero"/></clipPath><linearGradient x1="-53.333" gradientTransform="matrix(1.444248, 0, 0, 1.447621, 77.856592, 77.96992)" y1="18" x2="110.883592" gradientUnits="userSpaceOnUse" y2="18" id="d2700caf54"><stop stop-opacity="1" stop-color="rgb(25.878906%, 1.568604%, 49.409485%)" offset="0"/><stop stop-opacity="1" stop-color="rgb(25.878906%, 1.568604%, 49.409485%)" offset="0.25"/><stop stop-opacity="1" stop-color="rgb(25.878906%, 1.568604%, 49.409485%)" offset="0.3125"/><stop stop-opacity="1" stop-color="rgb(25.878906%, 1.568604%, 49.409485%)" offset="0.320313"/><stop stop-opacity="1" stop-color="rgb(25.819397%, 1.811218%, 49.441528%)" offset="0.324219"/><stop stop-opacity="1" stop-color="rgb(25.759888%, 2.055359%, 49.473572%)" offset="0.328125"/><stop stop-opacity="1" stop-color="rgb(25.621033%, 2.62146%, 49.54834%)" offset="0.332031"/><stop stop-opacity="1" stop-color="rgb(25.482178%, 3.187561%, 49.624634%)" offset="0.335938"/><stop stop-opacity="1" stop-color="rgb(25.341797%, 3.753662%, 49.699402%)" offset="0.339844"/><stop stop-opacity="1" stop-color="rgb(25.202942%, 4.319763%, 49.775696%)" offset="0.34375"/><stop stop-opacity="1" stop-color="rgb(25.064087%, 4.885864%, 49.850464%)" offset="0.347656"/><stop stop-opacity="1" stop-color="rgb(24.925232%, 5.451965%, 49.926758%)" offset="0.351563"/><stop stop-opacity="1" stop-color="rgb(24.784851%, 6.018066%, 50.001526%)" offset="0.355469"/><stop stop-opacity="1" stop-color="rgb(24.645996%, 6.585693%, 50.07782%)" offset="0.359375"/><stop stop-opacity="1" stop-color="rgb(24.507141%, 7.151794%, 50.152588%)" offset="0.363281"/><stop stop-opacity="1" stop-color="rgb(24.368286%, 7.717896%, 50.228882%)" offset="0.367188"/><stop stop-opacity="1" stop-color="rgb(24.229431%, 8.283997%, 50.30365%)" offset="0.371094"/><stop stop-opacity="1" stop-color="rgb(24.090576%, 8.850098%, 50.379944%)" offset="0.375"/><stop stop-opacity="1" stop-color="rgb(23.950195%, 9.416199%, 50.454712%)" offset="0.378906"/><stop stop-opacity="1" stop-color="rgb(23.81134%, 9.9823%, 50.531006%)" offset="0.382813"/><stop stop-opacity="1" stop-color="rgb(23.672485%, 10.548401%, 50.605774%)" offset="0.386719"/><stop stop-opacity="1" stop-color="rgb(23.53363%, 11.114502%, 50.682068%)" offset="0.390625"/><stop stop-opacity="1" stop-color="rgb(23.39325%, 11.680603%, 50.756836%)" offset="0.394531"/><stop stop-opacity="1" stop-color="rgb(23.254395%, 12.24823%, 50.83313%)" offset="0.398438"/><stop stop-opacity="1" stop-color="rgb(23.11554%, 12.814331%, 50.907898%)" offset="0.402344"/><stop stop-opacity="1" stop-color="rgb(22.976685%, 13.380432%, 50.984192%)" offset="0.40625"/><stop stop-opacity="1" stop-color="rgb(22.83783%, 13.946533%, 51.05896%)" offset="0.410156"/><stop stop-opacity="1" stop-color="rgb(22.698975%, 14.512634%, 51.135254%)" offset="0.414063"/><stop stop-opacity="1" stop-color="rgb(22.558594%, 15.078735%, 51.210022%)" offset="0.417969"/><stop stop-opacity="1" stop-color="rgb(22.419739%, 15.644836%, 51.286316%)" offset="0.421875"/><stop stop-opacity="1" stop-color="rgb(22.280884%, 16.210938%, 51.361084%)" offset="0.425781"/><stop stop-opacity="1" stop-color="rgb(22.142029%, 16.777039%, 51.437378%)" offset="0.429688"/><stop stop-opacity="1" stop-color="rgb(22.001648%, 17.34314%, 51.512146%)" offset="0.433594"/><stop stop-opacity="1" stop-color="rgb(21.862793%, 17.909241%, 51.58844%)" offset="0.4375"/><stop stop-opacity="1" stop-color="rgb(21.723938%, 18.475342%, 51.663208%)" offset="0.441406"/><stop stop-opacity="1" stop-color="rgb(21.585083%, 19.042969%, 51.739502%)" offset="0.445313"/><stop stop-opacity="1" stop-color="rgb(21.446228%, 19.60907%, 51.81427%)" offset="0.449219"/><stop stop-opacity="1" stop-color="rgb(21.307373%, 20.175171%, 51.890564%)" offset="0.453125"/><stop stop-opacity="1" stop-color="rgb(21.166992%, 20.741272%, 51.965332%)" offset="0.457031"/><stop stop-opacity="1" stop-color="rgb(21.028137%, 21.307373%, 52.041626%)" offset="0.460938"/><stop stop-opacity="1" stop-color="rgb(20.889282%, 21.873474%, 52.116394%)" offset="0.464844"/><stop stop-opacity="1" stop-color="rgb(20.750427%, 22.439575%, 52.192688%)" offset="0.46875"/><stop stop-opacity="1" stop-color="rgb(20.611572%, 23.005676%, 52.267456%)" offset="0.472656"/><stop stop-opacity="1" stop-color="rgb(20.472717%, 23.571777%, 52.34375%)" offset="0.476563"/><stop stop-opacity="1" stop-color="rgb(20.332336%, 24.137878%, 52.418518%)" offset="0.480469"/><stop stop-opacity="1" stop-color="rgb(20.193481%, 24.705505%, 52.494812%)" offset="0.484375"/><stop stop-opacity="1" stop-color="rgb(20.054626%, 25.271606%, 52.56958%)" offset="0.488281"/><stop stop-opacity="1" stop-color="rgb(19.915771%, 25.837708%, 52.645874%)" offset="0.492188"/><stop stop-opacity="1" stop-color="rgb(19.775391%, 26.403809%, 52.720642%)" offset="0.496094"/><stop stop-opacity="1" stop-color="rgb(19.636536%, 26.96991%, 52.79541%)" offset="0.5"/><stop stop-opacity="1" stop-color="rgb(19.497681%, 27.536011%, 52.870178%)" offset="0.503906"/><stop stop-opacity="1" stop-color="rgb(19.358826%, 28.102112%, 52.946472%)" offset="0.507812"/><stop stop-opacity="1" stop-color="rgb(19.219971%, 28.668213%, 53.02124%)" offset="0.511719"/><stop stop-opacity="1" stop-color="rgb(19.081116%, 29.234314%, 53.097534%)" offset="0.515625"/><stop stop-opacity="1" stop-color="rgb(18.940735%, 29.800415%, 53.172302%)" offset="0.519531"/><stop stop-opacity="1" stop-color="rgb(18.80188%, 30.366516%, 53.248596%)" offset="0.523438"/><stop stop-opacity="1" stop-color="rgb(18.663025%, 30.932617%, 53.323364%)" offset="0.527344"/><stop stop-opacity="1" stop-color="rgb(18.52417%, 31.500244%, 53.399658%)" offset="0.53125"/><stop stop-opacity="1" stop-color="rgb(18.383789%, 32.066345%, 53.474426%)" offset="0.535156"/><stop stop-opacity="1" stop-color="rgb(18.244934%, 32.632446%, 53.55072%)" offset="0.539063"/><stop stop-opacity="1" stop-color="rgb(18.106079%, 33.198547%, 53.625488%)" offset="0.542969"/><stop stop-opacity="1" stop-color="rgb(17.967224%, 33.764648%, 53.701782%)" offset="0.546875"/><stop stop-opacity="1" stop-color="rgb(17.828369%, 34.33075%, 53.77655%)" offset="0.550781"/><stop stop-opacity="1" stop-color="rgb(17.689514%, 34.896851%, 53.852844%)" offset="0.554688"/><stop stop-opacity="1" stop-color="rgb(17.549133%, 35.462952%, 53.927612%)" offset="0.558594"/><stop stop-opacity="1" stop-color="rgb(17.410278%, 36.029053%, 54.003906%)" offset="0.5625"/><stop stop-opacity="1" stop-color="rgb(17.271423%, 36.595154%, 54.078674%)" offset="0.566406"/><stop stop-opacity="1" stop-color="rgb(17.132568%, 37.162781%, 54.154968%)" offset="0.570313"/><stop stop-opacity="1" stop-color="rgb(16.992188%, 37.728882%, 54.229736%)" offset="0.574219"/><stop stop-opacity="1" stop-color="rgb(16.853333%, 38.294983%, 54.30603%)" offset="0.578125"/><stop stop-opacity="1" stop-color="rgb(16.714478%, 38.861084%, 54.380798%)" offset="0.582031"/><stop stop-opacity="1" stop-color="rgb(16.575623%, 39.427185%, 54.457092%)" offset="0.585938"/><stop stop-opacity="1" stop-color="rgb(16.436768%, 39.993286%, 54.53186%)" offset="0.589844"/><stop stop-opacity="1" stop-color="rgb(16.297913%, 40.559387%, 54.608154%)" offset="0.59375"/><stop stop-opacity="1" stop-color="rgb(16.157532%, 41.125488%, 54.682922%)" offset="0.597656"/><stop stop-opacity="1" stop-color="rgb(16.018677%, 41.691589%, 54.759216%)" offset="0.601563"/><stop stop-opacity="1" stop-color="rgb(15.879822%, 42.25769%, 54.833984%)" offset="0.605469"/><stop stop-opacity="1" stop-color="rgb(15.740967%, 42.823792%, 54.910278%)" offset="0.609375"/><stop stop-opacity="1" stop-color="rgb(15.600586%, 43.389893%, 54.985046%)" offset="0.613281"/><stop stop-opacity="1" stop-color="rgb(15.461731%, 43.95752%, 55.06134%)" offset="0.617188"/><stop stop-opacity="1" stop-color="rgb(15.322876%, 44.523621%, 55.136108%)" offset="0.621094"/><stop stop-opacity="1" stop-color="rgb(15.184021%, 45.089722%, 55.212402%)" offset="0.625"/><stop stop-opacity="1" stop-color="rgb(15.045166%, 45.655823%, 55.28717%)" offset="0.628906"/><stop stop-opacity="1" stop-color="rgb(14.906311%, 46.221924%, 55.363464%)" offset="0.632813"/><stop stop-opacity="1" stop-color="rgb(14.76593%, 46.788025%, 55.438232%)" offset="0.636719"/><stop stop-opacity="1" stop-color="rgb(14.627075%, 47.354126%, 55.514526%)" offset="0.640625"/><stop stop-opacity="1" stop-color="rgb(14.48822%, 47.920227%, 55.589294%)" offset="0.644531"/><stop stop-opacity="1" stop-color="rgb(14.349365%, 48.486328%, 55.665588%)" offset="0.648438"/><stop stop-opacity="1" stop-color="rgb(14.21051%, 49.052429%, 55.740356%)" offset="0.652344"/><stop stop-opacity="1" stop-color="rgb(14.071655%, 49.620056%, 55.81665%)" offset="0.65625"/><stop stop-opacity="1" stop-color="rgb(13.931274%, 50.186157%, 55.891418%)" offset="0.660156"/><stop stop-opacity="1" stop-color="rgb(13.792419%, 50.752258%, 55.967712%)" offset="0.664063"/><stop stop-opacity="1" stop-color="rgb(13.653564%, 51.318359%, 56.04248%)" offset="0.667969"/><stop stop-opacity="1" stop-color="rgb(13.514709%, 51.88446%, 56.118774%)" offset="0.671875"/><stop stop-opacity="1" stop-color="rgb(13.374329%, 52.450562%, 56.193542%)" offset="0.675781"/><stop stop-opacity="1" stop-color="rgb(13.235474%, 53.016663%, 56.269836%)" offset="0.679688"/><stop stop-opacity="1" stop-color="rgb(13.096619%, 53.582764%, 56.344604%)" offset="0.683594"/><stop stop-opacity="1" stop-color="rgb(12.957764%, 54.148865%, 56.420898%)" offset="0.6875"/><stop stop-opacity="1" stop-color="rgb(12.818909%, 54.714966%, 56.495667%)" offset="0.691406"/><stop stop-opacity="1" stop-color="rgb(12.680054%, 55.281067%, 56.57196%)" offset="0.695312"/><stop stop-opacity="1" stop-color="rgb(12.539673%, 55.847168%, 56.646729%)" offset="0.699219"/><stop stop-opacity="1" stop-color="rgb(12.400818%, 56.414795%, 56.723022%)" offset="0.703125"/><stop stop-opacity="1" stop-color="rgb(12.261963%, 56.980896%, 56.797791%)" offset="0.707031"/><stop stop-opacity="1" stop-color="rgb(12.123108%, 57.546997%, 56.872559%)" offset="0.710938"/><stop stop-opacity="1" stop-color="rgb(11.982727%, 58.113098%, 56.947327%)" offset="0.714844"/><stop stop-opacity="1" stop-color="rgb(11.843872%, 58.679199%, 57.023621%)" offset="0.71875"/><stop stop-opacity="1" stop-color="rgb(11.705017%, 59.2453%, 57.098389%)" offset="0.722656"/><stop stop-opacity="1" stop-color="rgb(11.566162%, 59.811401%, 57.174683%)" offset="0.726563"/><stop stop-opacity="1" stop-color="rgb(11.427307%, 60.377502%, 57.249451%)" offset="0.730469"/><stop stop-opacity="1" stop-color="rgb(11.288452%, 60.943604%, 57.325745%)" offset="0.734375"/><stop stop-opacity="1" stop-color="rgb(11.148071%, 61.509705%, 57.400513%)" offset="0.738281"/><stop stop-opacity="1" stop-color="rgb(11.009216%, 62.077332%, 57.476807%)" offset="0.742188"/><stop stop-opacity="1" stop-color="rgb(10.870361%, 62.643433%, 57.551575%)" offset="0.746094"/><stop stop-opacity="1" stop-color="rgb(10.731506%, 63.209534%, 57.627869%)" offset="0.75"/><stop stop-opacity="1" stop-color="rgb(10.591125%, 63.775635%, 57.702637%)" offset="0.753906"/><stop stop-opacity="1" stop-color="rgb(10.452271%, 64.341736%, 57.778931%)" offset="0.757812"/><stop stop-opacity="1" stop-color="rgb(10.313416%, 64.907837%, 57.853699%)" offset="0.761719"/><stop stop-opacity="1" stop-color="rgb(10.174561%, 65.473938%, 57.929993%)" offset="0.765625"/><stop stop-opacity="1" stop-color="rgb(10.035706%, 66.040039%, 58.004761%)" offset="0.769531"/><stop stop-opacity="1" stop-color="rgb(9.896851%, 66.60614%, 58.081055%)" offset="0.773438"/><stop stop-opacity="1" stop-color="rgb(9.75647%, 67.172241%, 58.155823%)" offset="0.777344"/><stop stop-opacity="1" stop-color="rgb(9.617615%, 67.738342%, 58.232117%)" offset="0.78125"/><stop stop-opacity="1" stop-color="rgb(9.47876%, 68.304443%, 58.306885%)" offset="0.785156"/><stop stop-opacity="1" stop-color="rgb(9.339905%, 68.87207%, 58.383179%)" offset="0.789063"/><stop stop-opacity="1" stop-color="rgb(9.199524%, 69.438171%, 58.457947%)" offset="0.792969"/><stop stop-opacity="1" stop-color="rgb(9.060669%, 70.004272%, 58.534241%)" offset="0.796875"/><stop stop-opacity="1" stop-color="rgb(8.921814%, 70.570374%, 58.609009%)" offset="0.800781"/><stop stop-opacity="1" stop-color="rgb(8.782959%, 71.136475%, 58.685303%)" offset="0.804688"/><stop stop-opacity="1" stop-color="rgb(8.644104%, 71.702576%, 58.760071%)" offset="0.808594"/><stop stop-opacity="1" stop-color="rgb(8.505249%, 72.268677%, 58.836365%)" offset="0.8125"/><stop stop-opacity="1" stop-color="rgb(8.364868%, 72.834778%, 58.911133%)" offset="0.816406"/><stop stop-opacity="1" stop-color="rgb(8.226013%, 73.400879%, 58.987427%)" offset="0.820312"/><stop stop-opacity="1" stop-color="rgb(8.087158%, 73.96698%, 59.062195%)" offset="0.824219"/><stop stop-opacity="1" stop-color="rgb(7.948303%, 74.534607%, 59.138489%)" offset="0.828125"/><stop stop-opacity="1" stop-color="rgb(7.809448%, 75.100708%, 59.213257%)" offset="0.832031"/><stop stop-opacity="1" stop-color="rgb(7.670593%, 75.666809%, 59.289551%)" offset="0.835938"/><stop stop-opacity="1" stop-color="rgb(7.530212%, 76.23291%, 59.364319%)" offset="0.839844"/><stop stop-opacity="1" stop-color="rgb(7.391357%, 76.799011%, 59.440613%)" offset="0.84375"/><stop stop-opacity="1" stop-color="rgb(7.252502%, 77.365112%, 59.515381%)" offset="0.847656"/><stop stop-opacity="1" stop-color="rgb(7.113647%, 77.931213%, 59.591675%)" offset="0.851563"/><stop stop-opacity="1" stop-color="rgb(6.973267%, 78.497314%, 59.666443%)" offset="0.855469"/><stop stop-opacity="1" stop-color="rgb(6.834412%, 79.063416%, 59.742737%)" offset="0.859375"/><stop stop-opacity="1" stop-color="rgb(6.695557%, 79.629517%, 59.817505%)" offset="0.863281"/><stop stop-opacity="1" stop-color="rgb(6.556702%, 80.195618%, 59.893799%)" offset="0.867188"/><stop stop-opacity="1" stop-color="rgb(6.417847%, 80.761719%, 59.968567%)" offset="0.871094"/><stop stop-opacity="1" stop-color="rgb(6.278992%, 81.329346%, 60.044861%)" offset="0.875"/><stop stop-opacity="1" stop-color="rgb(6.138611%, 81.895447%, 60.119629%)" offset="0.878906"/><stop stop-opacity="1" stop-color="rgb(5.999756%, 82.461548%, 60.195923%)" offset="0.882812"/><stop stop-opacity="1" stop-color="rgb(5.860901%, 83.027649%, 60.270691%)" offset="0.886719"/><stop stop-opacity="1" stop-color="rgb(5.722046%, 83.59375%, 60.346985%)" offset="0.890625"/><stop stop-opacity="1" stop-color="rgb(5.581665%, 84.159851%, 60.421753%)" offset="0.894531"/><stop stop-opacity="1" stop-color="rgb(5.44281%, 84.725952%, 60.498047%)" offset="0.898438"/><stop stop-opacity="1" stop-color="rgb(5.303955%, 85.292053%, 60.572815%)" offset="0.902344"/><stop stop-opacity="1" stop-color="rgb(5.1651%, 85.858154%, 60.649109%)" offset="0.90625"/><stop stop-opacity="1" stop-color="rgb(5.026245%, 86.424255%, 60.723877%)" offset="0.910156"/><stop stop-opacity="1" stop-color="rgb(4.88739%, 86.990356%, 60.800171%)" offset="0.914063"/><stop stop-opacity="1" stop-color="rgb(4.747009%, 87.556458%, 60.874939%)" offset="0.917969"/><stop stop-opacity="1" stop-color="rgb(4.608154%, 88.124084%, 60.949707%)" offset="0.921875"/><stop stop-opacity="1" stop-color="rgb(4.469299%, 88.690186%, 61.024475%)" offset="0.925781"/><stop stop-opacity="1" stop-color="rgb(4.330444%, 89.256287%, 61.100769%)" offset="0.929688"/><stop stop-opacity="1" stop-color="rgb(4.190063%, 89.822388%, 61.175537%)" offset="0.933594"/><stop stop-opacity="1" stop-color="rgb(4.051208%, 90.388489%, 61.251831%)" offset="0.9375"/><stop stop-opacity="1" stop-color="rgb(3.912354%, 90.95459%, 61.326599%)" offset="0.941406"/><stop stop-opacity="1" stop-color="rgb(3.773499%, 91.520691%, 61.402893%)" offset="0.945312"/><stop stop-opacity="1" stop-color="rgb(3.634644%, 92.086792%, 61.477661%)" offset="0.949219"/><stop stop-opacity="1" stop-color="rgb(3.495789%, 92.652893%, 61.553955%)" offset="0.953125"/><stop stop-opacity="1" stop-color="rgb(3.355408%, 93.218994%, 61.628723%)" offset="0.957031"/><stop stop-opacity="1" stop-color="rgb(3.216553%, 93.786621%, 61.705017%)" offset="0.960938"/><stop stop-opacity="1" stop-color="rgb(3.077698%, 94.352722%, 61.779785%)" offset="0.964844"/><stop stop-opacity="1" stop-color="rgb(2.938843%, 94.918823%, 61.856079%)" offset="0.96875"/><stop stop-opacity="1" stop-color="rgb(2.844238%, 95.303345%, 61.907959%)" offset="0.972656"/><stop stop-opacity="1" stop-color="rgb(2.749634%, 95.689392%, 61.959839%)" offset="0.976563"/><stop stop-opacity="1" stop-color="rgb(2.749634%, 95.689392%, 61.959839%)" offset="0.984375"/><stop stop-opacity="1" stop-color="rgb(2.749634%, 95.689392%, 61.959839%)" offset="1"/></linearGradient><clipPath id="4ded012744"><rect x="0" width="238" y="0" height="208"/></clipPath><clipPath id="f8864cb576"><path d="M 0.828125 0.765625 L 238 0.765625 L 238 207.292969 L 0.828125 207.292969 Z M 0.828125 0.765625 " clip-rule="nonzero"/></clipPath><clipPath id="20f20b1e2c"><rect x="0" width="238" y="0" height="208"/></clipPath><clipPath id="70b897965d"><rect x="0" width="238" y="0" height="208"/></clipPath><mask id="73046281c3"><g filter="url(#26425d4dfe)"><g transform="matrix(1, 0, 0, 1, 0.000000000000028422, 0)"><g clip-path="url(#70b897965d)"><g clip-path="url(#f8864cb576)"><g transform="matrix(1, 0, 0, 1, 0.000000000000028422, 0)"><g clip-path="url(#20f20b1e2c)"><g fill="#000000" fill-opacity="1"><g transform="translate(77.371948, 117.748224)"><g><path d="M 16.359375 0 L 15.25 -2.859375 L 15.09375 -2.859375 C 14.125 -1.640625 13.128906 -0.796875 12.109375 -0.328125 C 11.085938 0.140625 9.757812 0.375 8.125 0.375 C 6.101562 0.375 4.507812 -0.195312 3.34375 -1.34375 C 2.1875 -2.5 1.609375 -4.144531 1.609375 -6.28125 C 1.609375 -8.507812 2.390625 -10.148438 3.953125 -11.203125 C 5.515625 -12.265625 7.867188 -12.851562 11.015625 -12.96875 L 14.65625 -13.078125 L 14.65625 -14 C 14.65625 -16.132812 13.566406 -17.203125 11.390625 -17.203125 C 9.710938 -17.203125 7.738281 -16.691406 5.46875 -15.671875 L 3.578125 -19.546875 C 5.992188 -20.816406 8.675781 -21.453125 11.625 -21.453125 C 14.4375 -21.453125 16.59375 -20.835938 18.09375 -19.609375 C 19.601562 -18.378906 20.359375 -16.507812 20.359375 -14 L 20.359375 0 Z M 14.65625 -9.734375 L 12.4375 -9.65625 C 10.769531 -9.613281 9.53125 -9.316406 8.71875 -8.765625 C 7.90625 -8.210938 7.5 -7.367188 7.5 -6.234375 C 7.5 -4.617188 8.425781 -3.8125 10.28125 -3.8125 C 11.613281 -3.8125 12.675781 -4.191406 13.46875 -4.953125 C 14.257812 -5.722656 14.65625 -6.742188 14.65625 -8.015625 Z M 14.65625 -9.734375 "/></g></g></g><g fill="#000000" fill-opacity="1"><g transform="translate(100.625069, 117.748224)"><g><path d="M 11.546875 0.375 C 5.003906 0.375 1.734375 -3.210938 1.734375 -10.390625 C 1.734375 -13.960938 2.617188 -16.691406 4.390625 -18.578125 C 6.171875 -20.460938 8.722656 -21.40625 12.046875 -21.40625 C 14.484375 -21.40625 16.664062 -20.929688 18.59375 -19.984375 L 16.90625 -15.546875 C 16 -15.910156 15.15625 -16.207031 14.375 -16.4375 C 13.601562 -16.664062 12.828125 -16.78125 12.046875 -16.78125 C 9.066406 -16.78125 7.578125 -14.664062 7.578125 -10.4375 C 7.578125 -6.320312 9.066406 -4.265625 12.046875 -4.265625 C 13.148438 -4.265625 14.171875 -4.410156 15.109375 -4.703125 C 16.054688 -5.003906 17 -5.46875 17.9375 -6.09375 L 17.9375 -1.1875 C 17.007812 -0.59375 16.070312 -0.1875 15.125 0.03125 C 14.175781 0.257812 12.984375 0.375 11.546875 0.375 Z M 11.546875 0.375 "/></g></g></g><g fill="#000000" fill-opacity="1"><g transform="translate(120.419358, 117.748224)"><g><path d="M 11.546875 0.375 C 5.003906 0.375 1.734375 -3.210938 1.734375 -10.390625 C 1.734375 -13.960938 2.617188 -16.691406 4.390625 -18.578125 C 6.171875 -20.460938 8.722656 -21.40625 12.046875 -21.40625 C 14.484375 -21.40625 16.664062 -20.929688 18.59375 -19.984375 L 16.90625 -15.546875 C 16 -15.910156 15.15625 -16.207031 14.375 -16.4375 C 13.601562 -16.664062 12.828125 -16.78125 12.046875 -16.78125 C 9.066406 -16.78125 7.578125 -14.664062 7.578125 -10.4375 C 7.578125 -6.320312 9.066406 -4.265625 12.046875 -4.265625 C 13.148438 -4.265625 14.171875 -4.410156 15.109375 -4.703125 C 16.054688 -5.003906 17 -5.46875 17.9375 -6.09375 L 17.9375 -1.1875 C 17.007812 -0.59375 16.070312 -0.1875 15.125 0.03125 C 14.175781 0.257812 12.984375 0.375 11.546875 0.375 Z M 11.546875 0.375 "/></g></g></g><g fill="#000000" fill-opacity="1"><g transform="translate(140.213648, 117.748224)"><g><path d="M 7.578125 -10.546875 C 7.578125 -8.460938 7.914062 -6.890625 8.59375 -5.828125 C 9.28125 -4.765625 10.394531 -4.234375 11.9375 -4.234375 C 13.46875 -4.234375 14.566406 -4.757812 15.234375 -5.8125 C 15.910156 -6.875 16.25 -8.453125 16.25 -10.546875 C 16.25 -12.628906 15.910156 -14.1875 15.234375 -15.21875 C 14.554688 -16.257812 13.445312 -16.78125 11.90625 -16.78125 C 10.375 -16.78125 9.269531 -16.265625 8.59375 -15.234375 C 7.914062 -14.203125 7.578125 -12.640625 7.578125 -10.546875 Z M 22.109375 -10.546875 C 22.109375 -7.128906 21.203125 -4.453125 19.390625 -2.515625 C 17.585938 -0.585938 15.078125 0.375 11.859375 0.375 C 9.835938 0.375 8.054688 -0.0664062 6.515625 -0.953125 C 4.984375 -1.835938 3.800781 -3.101562 2.96875 -4.75 C 2.144531 -6.40625 1.734375 -8.335938 1.734375 -10.546875 C 1.734375 -13.984375 2.628906 -16.648438 4.421875 -18.546875 C 6.210938 -20.453125 8.726562 -21.40625 11.96875 -21.40625 C 13.988281 -21.40625 15.769531 -20.96875 17.3125 -20.09375 C 18.851562 -19.21875 20.035156 -17.957031 20.859375 -16.3125 C 21.691406 -14.675781 22.109375 -12.753906 22.109375 -10.546875 Z M 22.109375 -10.546875 "/></g></g></g><g fill="#000000" fill-opacity="1"><g transform="translate(164.049506, 117.748224)"><g><path d="M 17.890625 0 L 17.125 -2.6875 L 16.828125 -2.6875 C 16.210938 -1.707031 15.335938 -0.953125 14.203125 -0.421875 C 13.078125 0.109375 11.796875 0.375 10.359375 0.375 C 7.890625 0.375 6.023438 -0.285156 4.765625 -1.609375 C 3.515625 -2.929688 2.890625 -4.832031 2.890625 -7.3125 L 2.890625 -21.015625 L 8.625 -21.015625 L 8.625 -8.734375 C 8.625 -7.222656 8.894531 -6.085938 9.4375 -5.328125 C 9.976562 -4.566406 10.835938 -4.1875 12.015625 -4.1875 C 13.617188 -4.1875 14.773438 -4.722656 15.484375 -5.796875 C 16.203125 -6.867188 16.5625 -8.644531 16.5625 -11.125 L 16.5625 -21.015625 L 22.296875 -21.015625 L 22.296875 0 Z M 17.890625 0 "/></g></g></g><g fill="#000000" fill-opacity="1"><g transform="translate(189.351609, 117.748224)"><g><path d="M 22.40625 0 L 16.671875 0 L 16.671875 -12.28125 C 16.671875 -13.789062 16.398438 -14.925781 15.859375 -15.6875 C 15.328125 -16.445312 14.472656 -16.828125 13.296875 -16.828125 C 11.691406 -16.828125 10.53125 -16.289062 9.8125 -15.21875 C 9.09375 -14.144531 8.734375 -12.367188 8.734375 -9.890625 L 8.734375 0 L 3.015625 0 L 3.015625 -21.015625 L 7.390625 -21.015625 L 8.15625 -18.328125 L 8.484375 -18.328125 C 9.117188 -19.347656 9.992188 -20.113281 11.109375 -20.625 C 12.234375 -21.144531 13.507812 -21.40625 14.9375 -21.40625 C 17.382812 -21.40625 19.238281 -20.742188 20.5 -19.421875 C 21.769531 -18.109375 22.40625 -16.203125 22.40625 -13.703125 Z M 22.40625 0 "/></g></g></g><g fill="#000000" fill-opacity="1"><g transform="translate(214.653712, 117.748224)"><g><path d="M 11.859375 -4.1875 C 12.859375 -4.1875 14.0625 -4.40625 15.46875 -4.84375 L 15.46875 -0.578125 C 14.039062 0.0546875 12.285156 0.375 10.203125 0.375 C 7.910156 0.375 6.238281 -0.203125 5.1875 -1.359375 C 4.144531 -2.523438 3.625 -4.265625 3.625 -6.578125 L 3.625 -16.71875 L 0.890625 -16.71875 L 0.890625 -19.140625 L 4.046875 -21.0625 L 5.703125 -25.484375 L 9.359375 -25.484375 L 9.359375 -21.015625 L 15.25 -21.015625 L 15.25 -16.71875 L 9.359375 -16.71875 L 9.359375 -6.578125 C 9.359375 -5.765625 9.585938 -5.160156 10.046875 -4.765625 C 10.503906 -4.378906 11.109375 -4.1875 11.859375 -4.1875 Z M 11.859375 -4.1875 "/></g></g></g></g></g></g></g></g></g></mask><clipPath id="b9d6d6196e"><path d="M 0.832031 0.765625 L 238 0.765625 L 238 207.292969 L 0.832031 207.292969 Z M 0.832031 0.765625 " clip-rule="nonzero"/></clipPath><clipPath id="d5401f69ac"><rect x="0" width="238" y="0" height="208"/></clipPath><clipPath id="5412e56fd6"><rect x="0" width="238" y="0" height="208"/></clipPath><clipPath id="0ae37af136"><rect x="0" width="366" y="0" height="210"/></clipPath></defs><g transform="matrix(1, 0, 0, 1, 9, 84)"><g clip-path="url(#0ae37af136)"><g clip-path="url(#76ff31ac53)"><path fill="#000000" d="M 16.988281 86.351562 L 16.453125 85.332031 C 15.492188 83.695312 14.125 82.558594 12.515625 81.597656 C 11.460938 80.96875 10.246094 80.519531 9.234375 79.890625 C 8.972656 79.730469 8.804688 79.613281 8.726562 79.292969 C 8.828125 74.277344 8.511719 69.136719 8.703125 64.136719 C 8.84375 60.402344 10.132812 57.503906 13.078125 55.203125 C 13.472656 53.453125 14.128906 51.703125 15.160156 50.234375 C 15.421875 49.867188 16.113281 48.796875 16.617188 49.121094 C 17.324219 49.574219 17.84375 51.960938 18.089844 52.78125 C 18.167969 52.800781 18.175781 52.761719 18.21875 52.730469 C 18.96875 52.207031 19.734375 51.039062 20.503906 50.542969 C 20.796875 50.355469 21.144531 50.207031 21.296875 50.636719 C 21.585938 51.4375 21.246094 52.65625 21.34375 53.488281 C 21.425781 54.160156 21.796875 54.078125 22.265625 54.300781 C 23.449219 54.863281 23.972656 55.675781 24.992188 56.355469 C 26.203125 57.164062 27.664062 57.523438 29.085938 57.773438 C 29.878906 57.910156 31.023438 57.933594 31.742188 58.160156 C 32.570312 58.421875 31.636719 59.484375 31.324219 59.84375 C 30.515625 60.769531 29.589844 61.347656 28.335938 61.425781 C 25.804688 61.585938 23.046875 61.1875 20.53125 61.535156 C 18.707031 61.785156 17.214844 62.945312 17.046875 64.882812 C 17.023438 65.140625 16.941406 65.621094 17.277344 65.632812 L 28.808594 65.632812 C 29.226562 65.636719 29.378906 65.914062 29.414062 66.296875 C 29.613281 68.578125 28.734375 71.945312 26.027344 72.171875 L 17.378906 72.171875 C 17.25 72.136719 16.984375 72.292969 16.984375 72.410156 L 16.984375 86.347656 Z M 20.460938 56.535156 C 20.101562 56.917969 20.871094 57.398438 21.167969 57.511719 C 21.722656 57.726562 23.730469 57.949219 22.804688 56.867188 C 22.464844 56.46875 21.765625 56.285156 21.257812 56.308594 C 21.097656 56.316406 20.558594 56.429688 20.460938 56.535156 Z M 20.460938 56.535156 " fill-opacity="1" fill-rule="nonzero"/></g><g clip-path="url(#9a3ce01ea8)"><path fill="#000000" d="M 5.96875 72.132812 C 6.683594 72.070312 6.125 73.171875 6.035156 73.523438 C 5.699219 74.847656 5.582031 76.148438 5.898438 77.496094 C 6.65625 80.710938 9.828125 81.34375 12.242188 82.871094 C 14.578125 84.347656 16.203125 86.582031 16.359375 89.429688 C 16.394531 90.101562 16.496094 90.703125 15.695312 90.824219 C 14.445312 91.011719 12.242188 90.941406 10.933594 90.882812 C 7.746094 90.738281 4.628906 89.765625 2.519531 87.269531 C -0.875 83.261719 -0.292969 76.726562 3.75 73.386719 C 4.226562 72.996094 5.371094 72.183594 5.964844 72.132812 Z M 5.96875 72.132812 " fill-opacity="1" fill-rule="nonzero"/></g><g fill="#000000" fill-opacity="1"><g transform="translate(17.340768, 125.969484)"><g><path d="M 3.78125 0 L 3.78125 -43.4375 L 32.546875 -43.4375 L 32.546875 -35.875 L 12.953125 -35.875 L 12.953125 -25.515625 L 30.625 -25.515625 L 30.625 -17.953125 L 12.953125 -17.953125 L 12.953125 0 Z M 3.78125 0 "/></g></g></g><g fill="#000000" fill-opacity="1"><g transform="translate(51.874118, 125.969484)"><g><path d="M 12.890625 0.609375 C 9.785156 0.609375 7.207031 -0.203125 5.15625 -1.828125 C 3.101562 -3.453125 2.078125 -5.875 2.078125 -9.09375 C 2.078125 -11.53125 2.648438 -13.441406 3.796875 -14.828125 C 4.941406 -16.210938 6.441406 -17.226562 8.296875 -17.875 C 10.160156 -18.519531 12.164062 -18.941406 14.3125 -19.140625 C 17.144531 -19.421875 19.164062 -19.710938 20.375 -20.015625 C 21.59375 -20.328125 22.203125 -21.007812 22.203125 -22.0625 L 22.203125 -22.1875 C 22.203125 -23.53125 21.78125 -24.566406 20.9375 -25.296875 C 20.101562 -26.035156 18.914062 -26.40625 17.375 -26.40625 C 15.75 -26.40625 14.453125 -26.050781 13.484375 -25.34375 C 12.523438 -24.632812 11.890625 -23.738281 11.578125 -22.65625 L 3.21875 -23.328125 C 3.84375 -26.296875 5.390625 -28.648438 7.859375 -30.390625 C 10.328125 -32.128906 13.515625 -33 17.421875 -33 C 19.835938 -33 22.097656 -32.617188 24.203125 -31.859375 C 26.304688 -31.097656 28.003906 -29.90625 29.296875 -28.28125 C 30.597656 -26.664062 31.25 -24.5625 31.25 -21.96875 L 31.25 0 L 22.671875 0 L 22.671875 -4.515625 L 22.421875 -4.515625 C 21.628906 -3.003906 20.441406 -1.769531 18.859375 -0.8125 C 17.285156 0.132812 15.296875 0.609375 12.890625 0.609375 Z M 15.484375 -5.625 C 17.460938 -5.625 19.085938 -6.195312 20.359375 -7.34375 C 21.628906 -8.5 22.265625 -9.929688 22.265625 -11.640625 L 22.265625 -15.109375 C 21.921875 -14.867188 21.375 -14.65625 20.625 -14.46875 C 19.882812 -14.28125 19.09375 -14.117188 18.25 -13.984375 C 17.40625 -13.847656 16.65625 -13.734375 16 -13.640625 C 14.414062 -13.410156 13.140625 -12.960938 12.171875 -12.296875 C 11.203125 -11.640625 10.71875 -10.671875 10.71875 -9.390625 C 10.71875 -8.148438 11.164062 -7.210938 12.0625 -6.578125 C 12.957031 -5.941406 14.097656 -5.625 15.484375 -5.625 Z M 15.484375 -5.625 "/></g></g></g><g fill="#000000" fill-opacity="1"><g transform="translate(86.534757, 125.969484)"><g><path d="M 18.328125 0.640625 C 14.992188 0.640625 12.125 -0.0664062 9.71875 -1.484375 C 7.320312 -2.910156 5.484375 -4.890625 4.203125 -7.421875 C 2.929688 -9.953125 2.296875 -12.863281 2.296875 -16.15625 C 2.296875 -19.5 2.941406 -22.429688 4.234375 -24.953125 C 5.523438 -27.484375 7.363281 -29.457031 9.75 -30.875 C 12.144531 -32.289062 14.988281 -33 18.28125 -33 C 21.125 -33 23.613281 -32.484375 25.75 -31.453125 C 27.894531 -30.421875 29.585938 -28.972656 30.828125 -27.109375 C 32.066406 -25.242188 32.75 -23.050781 32.875 -20.53125 L 24.359375 -20.53125 C 24.109375 -22.15625 23.472656 -23.46875 22.453125 -24.46875 C 21.429688 -25.46875 20.09375 -25.96875 18.4375 -25.96875 C 16.34375 -25.96875 14.65625 -25.125 13.375 -23.4375 C 12.101562 -21.757812 11.46875 -19.378906 11.46875 -16.296875 C 11.46875 -13.179688 12.097656 -10.769531 13.359375 -9.0625 C 14.628906 -7.363281 16.320312 -6.515625 18.4375 -6.515625 C 19.988281 -6.515625 21.296875 -6.984375 22.359375 -7.921875 C 23.421875 -8.859375 24.085938 -10.195312 24.359375 -11.9375 L 32.875 -11.9375 C 32.738281 -9.445312 32.066406 -7.253906 30.859375 -5.359375 C 29.648438 -3.472656 27.984375 -2 25.859375 -0.9375 C 23.734375 0.113281 21.222656 0.640625 18.328125 0.640625 Z M 18.328125 0.640625 "/></g></g></g><g fill="#000000" fill-opacity="1"><g transform="translate(121.619641, 125.969484)"><g><path d="M 3.609375 0 L 3.609375 -32.578125 L 12.640625 -32.578125 L 12.640625 0 Z M 8.15625 -36.78125 C 6.820312 -36.78125 5.671875 -37.226562 4.703125 -38.125 C 3.742188 -39.03125 3.265625 -40.109375 3.265625 -41.359375 C 3.265625 -42.617188 3.742188 -43.691406 4.703125 -44.578125 C 5.671875 -45.472656 6.820312 -45.921875 8.15625 -45.921875 C 9.5 -45.921875 10.648438 -45.472656 11.609375 -44.578125 C 12.566406 -43.691406 13.046875 -42.617188 13.046875 -41.359375 C 13.046875 -40.109375 12.566406 -39.03125 11.609375 -38.125 C 10.648438 -37.226562 9.5 -36.78125 8.15625 -36.78125 Z M 8.15625 -36.78125 "/></g></g></g><g fill="#000000" fill-opacity="1"><g transform="translate(137.868139, 125.969484)"><g><path d="M 12.640625 -43.4375 L 12.640625 0 L 3.609375 0 L 3.609375 -43.4375 Z M 12.640625 -43.4375 "/></g></g></g><g fill="#000000" fill-opacity="1"><g transform="translate(154.116637, 125.969484)"><g><path d="M 12.640625 -43.4375 L 12.640625 0 L 3.609375 0 L 3.609375 -43.4375 Z M 12.640625 -43.4375 "/></g></g></g><g fill="#000000" fill-opacity="1"><g transform="translate(170.365136, 125.969484)"><g><path d="M 3.609375 0 L 3.609375 -32.578125 L 12.640625 -32.578125 L 12.640625 0 Z M 8.15625 -36.78125 C 6.820312 -36.78125 5.671875 -37.226562 4.703125 -38.125 C 3.742188 -39.03125 3.265625 -40.109375 3.265625 -41.359375 C 3.265625 -42.617188 3.742188 -43.691406 4.703125 -44.578125 C 5.671875 -45.472656 6.820312 -45.921875 8.15625 -45.921875 C 9.5 -45.921875 10.648438 -45.472656 11.609375 -44.578125 C 12.566406 -43.691406 13.046875 -42.617188 13.046875 -41.359375 C 13.046875 -40.109375 12.566406 -39.03125 11.609375 -38.125 C 10.648438 -37.226562 9.5 -36.78125 8.15625 -36.78125 Z M 8.15625 -36.78125 "/></g></g></g><g fill="#000000" fill-opacity="1"><g transform="translate(186.613634, 125.969484)"><g><path d="M 20.9375 -32.578125 L 20.9375 -25.796875 L 14.8125 -25.796875 L 14.8125 -10.015625 C 14.8125 -8.765625 15.09375 -7.921875 15.65625 -7.484375 C 16.21875 -7.046875 16.953125 -6.828125 17.859375 -6.828125 C 18.285156 -6.828125 18.707031 -6.863281 19.125 -6.9375 C 19.550781 -7.019531 19.878906 -7.082031 20.109375 -7.125 L 21.53125 -0.40625 C 21.082031 -0.257812 20.445312 -0.09375 19.625 0.09375 C 18.800781 0.28125 17.800781 0.398438 16.625 0.453125 C 13.34375 0.585938 10.707031 -0.125 8.71875 -1.6875 C 6.738281 -3.25 5.753906 -5.628906 5.765625 -8.828125 L 5.765625 -25.796875 L 1.3125 -25.796875 L 1.3125 -32.578125 L 5.765625 -32.578125 L 5.765625 -40.390625 L 14.8125 -40.390625 L 14.8125 -32.578125 Z M 20.9375 -32.578125 "/></g></g></g><g clip-path="url(#d2720d0bc2)"><g transform="matrix(1, 0, 0, 1, 128, 1)"><g clip-path="url(#5412e56fd6)"><g clip-path="url(#d3ec44b4dc)"><g mask="url(#73046281c3)"><g transform="matrix(1, 0, 0, 1, 0.000000000000028422, 0)"><g clip-path="url(#d5401f69ac)"><g clip-path="url(#b9d6d6196e)"><path fill="url(#d2700caf54)" d="M 0.832031 0.765625 L 0.832031 207.292969 L 238 207.292969 L 238 0.765625 Z M 0.832031 0.765625 " fill-rule="nonzero"/></g></g></g></g></g></g></g></g></g></g></svg>